<svg xmlns="http://www.w3.org/2000/svg" viewBox="0 0 456.29 419.72"><defs><style>.cls-1{fill:#fff;}</style></defs><title>Recurso 12</title><g id="Capa_2" data-name="Capa 2"><g id="Capa_4" data-name="Capa 4"><circle class="cls-1" cx="362.46" cy="195.09" r="11.38"/><path class="cls-1" d="M367.81,194.32c1.08,6.87-9.72,8.41-10.69,1.54-1-7,8.93-8.09,10.69-1.54,2,7.45,13.59,4.29,11.57-3.19-2.44-9.07-11.46-15.22-20.88-13a17.36,17.36,0,0,0,7.31,33.94c10.05-1.91,15.07-11.45,13.57-21-.5-3.23-4.5-4.95-7.38-4.19C368.58,187.84,367.31,191.13,367.81,194.32Z"/><circle class="cls-1" cx="395.42" cy="217.68" r="11.38"/><path class="cls-1" d="M400.77,216.91c1.07,6.87-9.73,8.41-10.7,1.55-1-7,8.93-8.09,10.7-1.55,2,7.45,13.58,4.29,11.57-3.19-2.45-9.07-11.47-15.21-20.88-12.95a17.36,17.36,0,0,0,7.31,33.93c10-1.9,15.06-11.45,13.57-21-.51-3.22-4.51-4.95-7.38-4.19C401.53,210.44,400.27,213.73,400.77,216.91Z"/><circle class="cls-1" cx="373.8" cy="250.43" r="11.38"/><path class="cls-1" d="M379.15,249.66c1.08,6.87-9.73,8.41-10.7,1.54-1-7,8.94-8.09,10.7-1.54,2,7.45,13.59,4.29,11.57-3.19-2.44-9.07-11.46-15.22-20.88-13a17.36,17.36,0,0,0,7.31,33.94c10.05-1.91,15.07-11.45,13.57-21-.5-3.23-4.5-4.95-7.38-4.19C379.92,243.18,378.65,246.47,379.15,249.66Z"/><circle class="cls-1" cx="341.06" cy="229.81" r="11.38"/><path class="cls-1" d="M346.41,229c1.07,6.87-9.73,8.41-10.7,1.55-1-7,8.93-8.09,10.7-1.55,2,7.45,13.58,4.29,11.57-3.19-2.45-9.07-11.47-15.21-20.88-13a17.36,17.36,0,0,0,7.3,33.94c10.05-1.9,15.07-11.45,13.58-21-.51-3.22-4.51-4.95-7.38-4.19C347.17,222.56,345.91,225.86,346.41,229Z"/><path class="cls-1" d="M105.24,262.39a7.57,7.57,0,0,1-10.71,3.28c-4.13-2.47-8.63-5.49-9.17-7.23l-3.51-11.51c-1-3.29.84-6.77,3.84-8.74l11.51-3.52c3.58,0,7.07,1.81,8.08,5.1l3.51,11.51C109.33,253,107.28,258,105.24,262.39Z"/><path class="cls-1" d="M101.35,260.12c-2.69,4.64-8.94-.54-11.51-3.15-1.14-1.16.17.71-.25-.08-.14-.29-.18-.66-.29-1-.47-1.3-.81-2.66-1.22-4-.57-1.89-1.71-4.19-1.88-6.17-.32-3.76,2.32-3.75,5.09-4.59,1.88-.58,4.78-2.12,6.75-2.07,2.39.07,3,2.29,3.61,4.19.8,2.6,1.79,5.21,2.4,7.85.55,2.36-1.21,5.74-2.7,9-2.41,5.23,5.34,9.8,7.77,4.54,2.34-5.07,5.12-10.26,3.61-15.89-.91-3.4-1.93-6.88-3.11-10.2-4.05-11.28-16.27-8.34-24.77-4.82-11.3,4.67-7,16.54-4.06,25.12,1.74,5,6.93,8.3,11.47,10.68a12.31,12.31,0,0,0,16.86-4.89C112,259.65,104.26,255.11,101.35,260.12Z"/><path class="cls-1" d="M245.09,242.56c-3.62,4-10.93,5.28-15.7,2.77-5.15-2.71-13.1-19.65-13.1-19.65-.59-3.39,2.84-6.83,7.67-7.68l16.89-3c4.83-.85,9.23,1.21,9.83,4.6C250.68,219.62,249,238.25,245.09,242.56Z"/><path class="cls-1" d="M240.85,238.32c-7.69,7.46-12.94-3.46-16.06-9.17q-1.23-2.28-2.39-4.6c-.37-.75-2-3-.59-.49,1,1.78.3.9,2.19.1a7.47,7.47,0,0,1,1.84-.42c1.16-.27,2.36-.42,3.53-.63l10.06-1.77a21,21,0,0,1,2.94-.52c.35,0,2.45.42,2.52.39-.51.22.48-2.33-.27-1-1,1.77-.79,6.24-1.15,8.24-.49,2.75-1.23,8.17-2.62,9.9-4.78,6,3.66,14.51,8.49,8.48,5.39-6.73,6.58-17.32,7.19-25.69.79-11-11.22-12.94-19.56-11.47-7.58,1.34-18,1.46-23.56,7.48-6.85,7.4,0,16.93,4.32,23.71,3,4.66,6.31,9.3,11.81,11a20.41,20.41,0,0,0,19.8-5C254.89,241.41,246.4,232.93,240.85,238.32Z"/><path class="cls-1" d="M102.23,290.65A7.57,7.57,0,0,1,113,287.43c4.12,2.48,8.61,5.53,9.13,7.27l3.47,11.52a6.24,6.24,0,0,1-4.18,7.77l-11.52,3.46a6.25,6.25,0,0,1-7.77-4.17l-3.46-11.53C98.1,300,100.17,295,102.23,290.65Z"/><path class="cls-1" d="M106.12,292.92c2.69-4.58,9,.61,11.5,3.24,1.12,1.18-.18-.72.23.09a6.4,6.4,0,0,1,.39,1.29c.34,1.23.73,2.44,1.1,3.66.54,1.79,1.89,4.34,1.87,6.22,0,2.67-2.88,2.78-5,3.42s-4.91,2.05-7.19,2.17c-2.56.13-2.67-1.2-3.29-3.28-.78-2.6-1.77-5.21-2.36-7.86-.53-2.36,1.25-5.73,2.76-8.95,2.44-5.21-5.32-9.79-7.77-4.54-2.37,5.06-5.16,10.24-3.67,15.88.9,3.41,1.89,6.9,3.07,10.21,4,11.45,16.22,6.88,24.6,3.92,11.44-4,7.23-15.35,4.39-23.84-1.73-5.17-6.85-8.54-11.52-11a12.31,12.31,0,0,0-16.87,4.83C95.41,293.39,103.19,297.92,106.12,292.92Z"/><path class="cls-1" d="M122.57,278.51a7.55,7.55,0,0,1-3.34-10.68c2.44-4.14,5.43-8.67,7.17-9.21L137.89,255a6.25,6.25,0,0,1,7.81,4.1l3.58,11.48a6.22,6.22,0,0,1-4.09,7.81L133.7,282C132,282.55,126.93,280.53,122.57,278.51Z"/><path class="cls-1" d="M124.84,274.63c-4.66-2.67.43-8.92,3-11.52,1.14-1.14-.72.16.07-.26a7.14,7.14,0,0,1,1.29-.4c1.22-.36,2.43-.76,3.65-1.14,1.81-.57,4.29-1.91,6.19-1.94,2.73,0,2.84,2.75,3.51,4.91s2.06,4.87,2.24,7.17c.2,2.59-1.08,2.71-3.18,3.36-2.59.81-5.19,1.81-7.83,2.45-2.36.57-5.74-1.16-9-2.63-5.24-2.38-9.82,5.37-4.54,7.77,5.08,2.31,10.28,5.07,15.91,3.54,3.4-.93,6.87-2,10.18-3.18,11.45-4.17,6.75-16.23,3.71-24.61-4.14-11.45-15.36-7.1-23.86-4.19-5.17,1.77-8.45,6.89-10.9,11.6a12.32,12.32,0,0,0,5,16.84C125.33,285.28,129.87,277.51,124.84,274.63Z"/><path class="cls-1" d="M85.88,277.29A7.56,7.56,0,0,1,89.16,288c-2.45,4.14-5.47,8.64-7.21,9.18L70.44,300.7a6.23,6.23,0,0,1-7.78-4.13l-3.53-11.51a6.24,6.24,0,0,1,4.13-7.79l11.5-3.53C76.5,273.21,81.53,275.25,85.88,277.29Z"/><path class="cls-1" d="M83.61,281.18c4.63,2.68-.51,8.95-3.13,11.51-1.16,1.13.72-.17-.08.25a6.4,6.4,0,0,1-1.29.39c-1.23.35-2.44.75-3.66,1.12-1.79.56-4.31,1.91-6.2,1.91-2.7,0-2.81-2.81-3.47-5s-2.06-4.89-2.2-7.18c-.16-2.57,1.13-2.69,3.22-3.33,2.59-.79,5.2-1.79,7.85-2.4,2.36-.55,5.73,1.2,9,2.69,5.23,2.41,9.8-5.35,4.54-7.77-5.07-2.34-10.26-5.12-15.9-3.6-3.39.91-6.88,1.93-10.19,3.12-11.45,4.12-6.81,16.23-3.81,24.61,4.09,11.45,15.36,7.16,23.85,4.29,5.18-1.75,8.49-6.88,11-11.56a12.32,12.32,0,0,0-4.9-16.86C83.13,270.5,78.59,278.28,83.61,281.18Z"/><path class="cls-1" d="M233.43,250.63c15.65,15.31,37.53,25.21,57.67,11.95a63.82,63.82,0,0,0,21.78-25.22c3.3-6.94-7.05-13-10.36-6.05a53.44,53.44,0,0,1-15.46,19.49c-5.39,4.15-11.91,6.73-18.79,6.19-10.37-.82-19.21-7.86-26.36-14.85-5.52-5.4-14,3.07-8.48,8.49Z"/><path class="cls-1" d="M248.91,177.92c9.24-19.41,24.13-39.91,47.85-39.65,14.64.16,28.38,7.48,39.85,16a9.34,9.34,0,0,1,.91.7l1.5,1.2c.85.71,1.7,1.42,2.53,2.15s1.43,1.28,2.12,2c5.5,5.42,14-3.06,8.48-8.49-21.1-20.82-56-34.88-83.28-17.65-13.93,8.8-23.37,23.06-30.33,37.68-3.3,6.94,7.05,13,10.37,6Z"/><path class="cls-1" d="M211.07,177.16c-17.95-17.67-42.75-32.72-68.63-24-16.62,5.58-29.56,18.59-39.1,32.89a83.74,83.74,0,0,0-6,10.32c-3.29,6.94,7,13,10.37,6,10-21.15,32.07-44.17,57.93-39.15,14.53,2.82,26.67,12.27,37,22.41,5.51,5.43,14-3,8.48-8.48Z"/><path class="cls-1" d="M231.28,243.57c-7.65,16-20.2,29.87-39.2,24.19a54,54,0,0,1-15.65-8.09,41.41,41.41,0,0,1-5.65-4.69c-5.5-5.42-14,3.06-8.48,8.49,7.79,7.67,18.34,14,29,16.5,23.45,5.57,40.77-10.35,50.37-30.35,3.32-6.93-7-13-10.37-6.05Z"/><path class="cls-1" d="M104.93,406c-26.12-11.92-41.7-41-52.5-66.21a408.57,408.57,0,0,1-21.74-66.47c-10.4-43.95-14-88.71-15.92-133.68L12,75.43,1.76,79.68l58.83,54.93a6,6,0,0,0,5.83,1.55c34.79-12.52,69.58-25.59,105.41-34.84A527.38,527.38,0,0,1,294.3,84.45c21.19-.4,42.39-.49,63.59-.38a6,6,0,0,0,5.18-3L402,9l-11-1.43c10.47,31.14,20.11,62.68,29.66,94.12,9.79,32.22,17.72,65.39,21.51,98.89,1.82,16,1.62,31.71,1.74,47.76a246.16,246.16,0,0,1-1,26.19,168.66,168.66,0,0,1-10.18,44.16,100.6,100.6,0,0,1-12,22.3c-4.21,5.85-9.84,12.88-16.65,15.81-10.15,4.36-16.29-9.81-19.26-18a144.35,144.35,0,0,1-5.52-20.33c-1.32-6.48-1.18-14.73-5.26-20.16-7.14-9.52-22.09-9.18-32.88-8.95a376.64,376.64,0,0,0-37.8,3.11,968.12,968.12,0,0,0-96.66,17.06c-14.27,3.24-28.49,6.78-42.5,11-10.41,3.14-21.27,6.42-30.89,11.6-3.93,2.11-7.67,5.06-9.77,9.09-2.3,4.4-1.41,8.84-.63,13.47a175.11,175.11,0,0,1,2.21,19.92c.45,9.06,1.36,26-6.25,31.9-3.79,2.95-9.46,1.51-14-.43-7-3-13.14,7.32-6.05,10.36,12.5,5.36,26.5,5.37,33.45-8.16,6.29-12.24,5.55-27.84,4.27-41.12-.34-3.63-.81-7.24-1.33-10.84-.35-2.47-2-6.85-1.19-9.28,1.48-4.54,10.63-7.11,14.41-8.57A348.28,348.28,0,0,1,185.36,327a941.22,941.22,0,0,1,98.09-19.86c14.36-2.17,28.78-4,43.25-5.11,5.71-.44,11.42-.75,17.14-.79,2.16,0,4.33,0,6.49.12,1,0,2,.1,3,.19,1.46.12,2,.19,2.08.21,3.13.5,7.71,1.12,9.46,4.16,1.46,2.55,1.31,7.05,1.81,9.91a175.61,175.61,0,0,0,4.62,20c3.56,11.86,9.17,27.27,21.63,32.35,15.23,6.2,28.94-8.78,37.09-19.69,10.19-13.64,16.51-30,20.43-46.49,5.17-21.74,5.68-43.92,5.84-66.13.26-39.07-7.8-78.34-17.86-115.92-9.93-37.1-22.57-73.6-34.08-110.22-.57-1.81-1.12-3.63-1.72-5.43-1.57-4.66-8.39-6.21-11-1.43L352.71,75l5.18-3c-34.18-.17-68.69-.9-102.76,2.31C205.79,79,158,91.34,111.27,107.57q-24.06,8.37-48,17l5.84,1.55L10.25,71.19C6.63,67.81-.23,70,0,75.43,1.37,107.21,2.23,139,4.19,170.79c3.55,57.51,13.38,115,35.16,168.6,11.86,29.15,29.44,63.26,59.53,77C105.85,419.55,112,409.21,104.93,406Z"/></g></g></svg>